HIERARCHY
ROOT mixamorig:Hips
{
	OFFSET 0.000000 201.639420 0.000000
	CHANNELS 6 Xposition Yposition Zposition Xrotation Yrotation Zrotation
	JOINT mixamorig:Spine
	{
		OFFSET 0.006200 19.524994 -2.481800
		CHANNELS 3 Xrotation Yrotation Zrotation
		JOINT mixamorig:Spine1
		{
			OFFSET -0.000900 22.835007 -2.825400
			CHANNELS 3 Xrotation Yrotation Zrotation
			JOINT mixamorig:Spine2
			{
				OFFSET -0.020600 26.552490 -3.193300
				CHANNELS 3 Xrotation Yrotation Zrotation
				JOINT mixamorig:Neck
				{
					OFFSET -0.060000 30.701813 1.352200
					CHANNELS 3 Xrotation Yrotation Zrotation
					JOINT mixamorig:Head
					{
						OFFSET -0.087200 22.547607 3.670900
						CHANNELS 3 Xrotation Yrotation Zrotation
						JOINT mixamorig:HeadTop_End
						{
							OFFSET -0.830600 40.355194 7.893500
							CHANNELS 3 Xrotation Yrotation Zrotation
							End Site
							{
								OFFSET 0.000000 30.592346 0.000000
							}
						}
						JOINT mixamorig:RightEye
						{
							OFFSET -6.302100 18.118591 16.197100
							CHANNELS 3 Xrotation Yrotation Zrotation
							End Site
							{
								OFFSET 0.000000 30.592346 0.000000
							}
						}
						JOINT mixamorig:LeftEye
						{
							OFFSET 6.741500 18.382690 16.401899
							CHANNELS 3 Xrotation Yrotation Zrotation
							End Site
							{
								OFFSET 0.000000 30.592346 0.000000
							}
						}
					}
				}
				JOINT mixamorig:LeftShoulder
				{
					OFFSET 11.924900 18.230499 1.425400
					CHANNELS 3 Xrotation Yrotation Zrotation
					JOINT mixamorig:LeftArm
					{
						OFFSET 25.435989 -0.697632 -5.229300
						CHANNELS 3 Xrotation Yrotation Zrotation
						JOINT mixamorig:LeftForeArm
						{
							OFFSET 54.684776 0.000000 0.000000
							CHANNELS 3 Xrotation Yrotation Zrotation
							JOINT mixamorig:LeftHand
							{
								OFFSET 55.098175 0.000000 0.000000
								CHANNELS 3 Xrotation Yrotation Zrotation
								JOINT mixamorig:LeftHandMiddle1
								{
									OFFSET 23.369751 0.000000 0.000000
									CHANNELS 3 Xrotation Yrotation Zrotation
									JOINT mixamorig:LeftHandMiddle2
									{
										OFFSET 6.378677 0.000000 0.000000
										CHANNELS 3 Xrotation Yrotation Zrotation
										JOINT mixamorig:LeftHandMiddle3
										{
											OFFSET 6.148331 0.000000 0.000000
											CHANNELS 3 Xrotation Yrotation Zrotation
											JOINT mixamorig:LeftHandMiddle4
											{
												OFFSET 6.582504 0.000000 0.000000
												CHANNELS 3 Xrotation Yrotation Zrotation
												End Site
												{
													OFFSET -1.168900 6.395691 1.028606
												}
											}
										}
									}
								}
								JOINT mixamorig:LeftHandThumb1
								{
									OFFSET 7.235672 -3.848206 5.434273
									CHANNELS 3 Xrotation Yrotation Zrotation
									JOINT mixamorig:LeftHandThumb2
									{
										OFFSET 6.568451 -3.792297 3.792300
										CHANNELS 3 Xrotation Yrotation Zrotation
										JOINT mixamorig:LeftHandThumb3
										{
											OFFSET 6.063080 -3.500519 3.500518
											CHANNELS 3 Xrotation Yrotation Zrotation
											JOINT mixamorig:LeftHandThumb4
											{
												OFFSET 4.793182 -2.767334 2.767349
												CHANNELS 3 Xrotation Yrotation Zrotation
												End Site
												{
													OFFSET 0.101639 6.054260 1.275483
												}
											}
										}
									}
								}
								JOINT mixamorig:LeftHandIndex1
								{
									OFFSET 23.101074 -0.309540 4.992809
									CHANNELS 3 Xrotation Yrotation Zrotation
									JOINT mixamorig:LeftHandIndex2
									{
										OFFSET 6.226883 0.000000 0.000000
										CHANNELS 3 Xrotation Yrotation Zrotation
										JOINT mixamorig:LeftHandIndex3
										{
											OFFSET 6.094330 0.000000 0.000000
											CHANNELS 3 Xrotation Yrotation Zrotation
											JOINT mixamorig:LeftHandIndex4
											{
												OFFSET 5.482605 0.000000 0.000000
												CHANNELS 3 Xrotation Yrotation Zrotation
												End Site
												{
													OFFSET -1.427902 5.233032 0.797164
												}
											}
										}
									}
								}
								JOINT mixamorig:LeftHandRing1
								{
									OFFSET 22.299240 0.021149 -3.964172
									CHANNELS 3 Xrotation Yrotation Zrotation
									JOINT mixamorig:LeftHandRing2
									{
										OFFSET 6.321869 0.000000 0.000000
										CHANNELS 3 Xrotation Yrotation Zrotation
										JOINT mixamorig:LeftHandRing3
										{
											OFFSET 5.899796 0.000000 0.000000
											CHANNELS 3 Xrotation Yrotation Zrotation
											JOINT mixamorig:LeftHandRing4
											{
												OFFSET 6.517899 0.000000 0.000000
												CHANNELS 3 Xrotation Yrotation Zrotation
												End Site
												{
													OFFSET -1.637299 6.232208 0.980890
												}
											}
										}
									}
								}
								JOINT mixamorig:LeftHandPinky1
								{
									OFFSET 20.463791 -0.302338 -8.562233
									CHANNELS 3 Xrotation Yrotation Zrotation
									JOINT mixamorig:LeftHandPinky2
									{
										OFFSET 6.908646 0.000000 0.000000
										CHANNELS 3 Xrotation Yrotation Zrotation
										JOINT mixamorig:LeftHandPinky3
										{
											OFFSET 4.622849 0.000000 0.000000
											CHANNELS 3 Xrotation Yrotation Zrotation
											JOINT mixamorig:LeftHandPinky4
											{
												OFFSET 5.216080 0.000000 0.000000
												CHANNELS 3 Xrotation Yrotation Zrotation
												End Site
												{
													OFFSET -0.606308 5.116241 0.814926
												}
											}
										}
									}
								}
							}
						}
					}
				}
				JOINT mixamorig:RightShoulder
				{
					OFFSET -12.001300 18.284088 1.348900
					CHANNELS 3 Xrotation Yrotation Zrotation
					JOINT mixamorig:RightArm
					{
						OFFSET -25.308500 -0.751312 -5.164599
						CHANNELS 3 Xrotation Yrotation Zrotation
						JOINT mixamorig:RightForeArm
						{
							OFFSET -54.684429 0.000000 0.000000
							CHANNELS 3 Xrotation Yrotation Zrotation
							JOINT mixamorig:RightHand
							{
								OFFSET -55.150291 0.000000 0.000000
								CHANNELS 3 Xrotation Yrotation Zrotation
								JOINT mixamorig:RightHandMiddle1
								{
									OFFSET -23.317566 0.000000 0.000000
									CHANNELS 3 Xrotation Yrotation Zrotation
									JOINT mixamorig:RightHandMiddle2
									{
										OFFSET -6.378403 0.000000 0.000000
										CHANNELS 3 Xrotation Yrotation Zrotation
										JOINT mixamorig:RightHandMiddle3
										{
											OFFSET -6.148193 0.000000 0.000000
											CHANNELS 3 Xrotation Yrotation Zrotation
											JOINT mixamorig:RightHandMiddle4
											{
												OFFSET -6.583389 0.000000 0.000000
												CHANNELS 3 Xrotation Yrotation Zrotation
												End Site
												{
													OFFSET 1.171692 6.395905 1.029786
												}
											}
										}
									}
								}
								JOINT mixamorig:RightHandThumb1
								{
									OFFSET -7.190521 -3.860474 5.435846
									CHANNELS 3 Xrotation Yrotation Zrotation
									JOINT mixamorig:RightHandThumb2
									{
										OFFSET -6.567429 -3.791718 3.791708
										CHANNELS 3 Xrotation Yrotation Zrotation
										JOINT mixamorig:RightHandThumb3
										{
											OFFSET -6.062469 -3.500153 3.500166
											CHANNELS 3 Xrotation Yrotation Zrotation
											JOINT mixamorig:RightHandThumb4
											{
												OFFSET -4.792618 -2.767029 2.767022
												CHANNELS 3 Xrotation Yrotation Zrotation
												End Site
												{
													OFFSET -0.100327 6.053253 1.276754
												}
											}
										}
									}
								}
								JOINT mixamorig:RightHandIndex1
								{
									OFFSET -23.048981 -0.310791 4.992554
									CHANNELS 3 Xrotation Yrotation Zrotation
									JOINT mixamorig:RightHandIndex2
									{
										OFFSET -6.227539 0.000000 0.000000
										CHANNELS 3 Xrotation Yrotation Zrotation
										JOINT mixamorig:RightHandIndex3
										{
											OFFSET -6.095047 0.000000 0.000000
											CHANNELS 3 Xrotation Yrotation Zrotation
											JOINT mixamorig:RightHandIndex4
											{
												OFFSET -5.484772 0.000000 0.000000
												CHANNELS 3 Xrotation Yrotation Zrotation
												End Site
												{
													OFFSET 1.420593 5.237305 0.797056
												}
											}
										}
									}
								}
								JOINT mixamorig:RightHandRing1
								{
									OFFSET -22.246323 0.020569 -3.963762
									CHANNELS 3 Xrotation Yrotation Zrotation
									JOINT mixamorig:RightHandRing2
									{
										OFFSET -6.322128 0.000000 0.000000
										CHANNELS 3 Xrotation Yrotation Zrotation
										JOINT mixamorig:RightHandRing3
										{
											OFFSET -5.900024 0.000000 0.000000
											CHANNELS 3 Xrotation Yrotation Zrotation
											JOINT mixamorig:RightHandRing4
											{
												OFFSET -6.518356 0.000000 0.000000
												CHANNELS 3 Xrotation Yrotation Zrotation
												End Site
												{
													OFFSET 1.636398 6.232697 0.982186
												}
											}
										}
									}
								}
								JOINT mixamorig:RightHandPinky1
								{
									OFFSET -20.411011 -0.303314 -8.561701
									CHANNELS 3 Xrotation Yrotation Zrotation
									JOINT mixamorig:RightHandPinky2
									{
										OFFSET -6.907349 0.000000 0.000000
										CHANNELS 3 Xrotation Yrotation Zrotation
										JOINT mixamorig:RightHandPinky3
										{
											OFFSET -4.623840 0.000000 0.000000
											CHANNELS 3 Xrotation Yrotation Zrotation
											JOINT mixamorig:RightHandPinky4
											{
												OFFSET -5.218353 0.000000 0.000000
												CHANNELS 3 Xrotation Yrotation Zrotation
												End Site
												{
													OFFSET 0.602097 5.118835 0.816273
												}
											}
										}
									}
								}
							}
						}
					}
				}
			}
		}
	}
	JOINT mixamorig:LeftUpLeg
	{
		OFFSET 18.168400 -13.561905 -0.039000
		CHANNELS 3 Xrotation Yrotation Zrotation
		JOINT mixamorig:LeftLeg
		{
			OFFSET 0.577358 -80.825211 -3.695000
			CHANNELS 3 Xrotation Yrotation Zrotation
			JOINT mixamorig:LeftFoot
			{
				OFFSET -0.577356 -83.370262 -6.520700
				CHANNELS 3 Xrotation Yrotation Zrotation
				JOINT mixamorig:LeftToeBase
				{
					OFFSET 0.750401 -20.798306 25.135401
					CHANNELS 3 Xrotation Yrotation Zrotation
					JOINT mixamorig:LeftToe_End
					{
						OFFSET -0.000500 0.001200 19.917799
						CHANNELS 3 Xrotation Yrotation Zrotation
						End Site
						{
							OFFSET 0.000000 19.917805 0.000000
						}
					}
				}
			}
		}
	}
	JOINT mixamorig:RightUpLeg
	{
		OFFSET -18.162500 -13.585098 -0.041000
		CHANNELS 3 Xrotation Yrotation Zrotation
		JOINT mixamorig:RightLeg
		{
			OFFSET -0.595024 -80.945297 -3.631900
			CHANNELS 3 Xrotation Yrotation Zrotation
			JOINT mixamorig:RightFoot
			{
				OFFSET 0.595024 -83.218193 -6.561200
				CHANNELS 3 Xrotation Yrotation Zrotation
				JOINT mixamorig:RightToeBase
				{
					OFFSET -0.753601 -20.807106 25.115000
					CHANNELS 3 Xrotation Yrotation Zrotation
					JOINT mixamorig:RightToe_End
					{
						OFFSET 0.000299 0.001700 19.918200
						CHANNELS 3 Xrotation Yrotation Zrotation
						End Site
						{
							OFFSET 0.000000 19.918203 0.000000
						}
					}
				}
			}
		}
	}
}
MOTION
Frames: 5
Frame Time: 0.033333
0.793324 194.149277 -1.366158 -16.902348 -38.972008 -9.417236 7.991577 -0.058967 -0.113734 16.413464 -0.125524 -0.745991 16.413523 -0.192915 -0.721087 0.367402 7.480960 0.837549 -6.982151 21.597282 11.882999 -0.000001 -0.000001 0.000000 -0.000001 -0.000001 0.000000 -0.000001 -0.000001 0.000000 -37.571085 -4.822515 1.545822 -41.636977 -7.015590 -61.678828 0.000065 -64.846321 0.000073 -113.465589 8.539004 33.316573 0.405910 5.507035 -52.453186 3.387152 5.308620 -65.057449 0.282020 1.797445 -17.832381 0.000006 0.000001 -0.000000 4.709226 9.560383 3.111988 19.473194 -1.474895 7.636929 -4.536193 -9.613100 1.492972 0.000004 -0.000002 -0.000000 -0.212811 3.933709 -36.747128 2.942119 5.078900 -60.144624 0.513679 2.400830 -24.150495 -0.000002 -0.000001 0.000001 -0.074375 5.736792 -61.061420 4.055037 5.569516 -72.094921 0.582659 2.548969 -25.747998 -0.000003 0.000000 -0.000002 -6.565572 4.545129 -72.425256 3.299605 5.267205 -64.107828 0.175339 1.424013 -14.038882 -0.000001 0.000000 0.000003 -41.176311 -8.605642 -9.942317 -46.819670 58.242956 100.948707 0.001226 98.442997 -0.001252 -52.463103 -17.216612 -29.273112 3.413076 -7.186258 51.650259 6.296826 -4.359607 110.634673 0.248718 -1.503056 18.790264 0.000000 -0.000000 -0.000000 8.377144 -4.904139 11.022002 21.620199 -18.183891 -18.379225 -0.702956 -49.821213 -32.535203 0.000001 0.000002 -0.000001 -0.920033 1.683577 12.434999 0.748131 -2.533451 32.898286 0.615651 -2.316053 29.767826 -0.000000 0.000000 -0.000002 -3.349026 -2.600426 57.010568 5.440849 -4.590893 99.698127 1.689379 -3.590702 50.382224 -0.000001 -0.000000 -0.000002 -3.996433 -3.303929 64.593864 4.058834 -4.618652 82.610557 2.315534 -4.026787 59.787228 -0.000001 -0.000000 0.000001 -22.716232 42.825908 28.750954 22.439016 0.713244 -0.627138 4.282427 1.192903 -2.590423 -0.203167 0.000024 -0.007555 -0.000000 -0.000000 0.000000 2.208494 5.283212 -5.399998 31.267267 -0.424967 1.069574 -18.949161 -17.326597 4.273122 -0.020493 -0.000010 0.000000 0.000000 0.000002 0.000000 
0.683067 194.111771 -1.272350 -17.160610 -39.220620 -9.553629 7.898708 -0.214053 0.023896 16.354126 -0.148303 -0.684036 16.354413 -0.212061 -0.661038 0.248090 7.741383 0.518074 -6.269978 22.127115 11.767829 -0.000000 0.000000 -0.000002 -0.000000 0.000000 -0.000002 -0.000000 0.000000 -0.000002 -37.553845 -4.618433 1.841278 -40.066156 -4.633839 -62.984207 -0.000013 -67.900980 -0.000013 -111.630290 8.519971 34.126234 0.405911 5.507033 -52.453186 3.387154 5.308619 -65.057449 0.282020 1.797450 -17.832386 0.000002 -0.000001 0.000002 4.709225 9.560380 3.111985 19.473187 -1.474897 7.636930 -4.536195 -9.613103 1.492973 0.000003 0.000002 -0.000001 -0.212811 3.933708 -36.747125 2.942118 5.078902 -60.144624 0.513680 2.400829 -24.150494 -0.000002 0.000002 -0.000002 -0.074375 5.736792 -61.061427 4.055038 5.569514 -72.094921 0.582653 2.548968 -25.748007 -0.000004 -0.000001 -0.000001 -6.565573 4.545132 -72.425263 3.299598 5.267205 -64.107828 0.175334 1.424010 -14.038883 -0.000002 -0.000001 -0.000000 -41.206234 -9.007797 -9.996853 -44.835465 59.379472 100.167279 0.000744 99.487258 -0.000799 -51.708285 -16.497687 -28.551864 3.409146 -7.163879 52.088426 6.308232 -4.355294 110.784787 0.259070 -1.533139 19.181220 0.000001 -0.000000 -0.000000 8.247599 -3.336820 10.940285 18.798906 -20.909746 -15.860556 -0.502404 -49.813697 -32.343835 -0.000001 0.000001 -0.000001 -1.148615 1.350855 15.840662 1.267996 -3.196006 43.271840 1.292645 -3.221991 43.712313 0.000001 0.000000 -0.000000 -3.414485 -2.590679 57.248142 5.412652 -4.595626 99.345880 1.698342 -3.598066 50.525044 -0.000001 0.000001 -0.000001 -4.087056 -3.275850 64.698489 4.039826 -4.616171 82.374445 2.311438 -4.024388 59.728659 0.000000 0.000001 -0.000003 -22.401246 42.815854 28.701094 22.513232 1.016075 -0.615608 4.197393 1.188280 -2.726439 -0.205785 0.000027 -0.006098 0.000000 -0.000000 0.000000 2.310309 5.229865 -5.344673 31.387427 -0.163504 0.735283 -19.018187 -17.367518 4.349886 -0.290875 -0.000004 0.000001 -0.000000 0.000003 0.000000 
0.386782 194.126816 -1.574486 -17.877621 -39.262417 -9.718321 7.809075 -0.393493 0.161173 16.312290 -0.178714 -0.620176 16.312879 -0.240588 -0.597336 -0.301985 7.742458 0.516194 -5.152617 22.224655 11.463492 -0.000001 -0.000001 -0.000001 -0.000001 -0.000001 -0.000001 -0.000001 -0.000001 -0.000001 -37.552438 -4.378754 1.867276 -38.883277 -2.229336 -64.501021 0.000103 -70.234234 0.000100 -110.065534 8.904267 35.425282 0.405913 5.507036 -52.453189 3.387153 5.308617 -65.057449 0.282019 1.797447 -17.832388 0.000002 0.000003 -0.000002 4.709225 9.560384 3.111986 19.473190 -1.474901 7.636932 -4.536195 -9.613105 1.492981 -0.000002 0.000002 -0.000002 -0.212809 3.933706 -36.747128 2.942122 5.078898 -60.144624 0.513674 2.400828 -24.150490 0.000000 -0.000001 0.000001 -0.074373 5.736791 -61.061420 4.055036 5.569519 -72.094921 0.582661 2.548971 -25.748003 0.000000 -0.000001 -0.000001 -6.565573 4.545133 -72.425263 3.299598 5.267206 -64.107821 0.175333 1.424010 -14.038885 -0.000001 -0.000001 0.000001 -41.329574 -9.552225 -10.341679 -44.106838 60.283700 100.035681 0.000195 100.583299 -0.000158 -52.158804 -16.868921 -28.758450 3.412241 -7.136775 52.782496 6.326935 -4.348180 111.031132 0.269819 -1.563681 19.578420 0.000002 0.000000 -0.000001 8.056454 -1.713096 10.840830 16.304131 -23.535425 -13.907291 -0.817235 -49.826565 -32.644387 0.000000 -0.000001 -0.000004 -1.139319 1.511517 15.273203 1.379536 -3.310341 45.237323 1.423092 -3.352897 45.986690 0.000001 -0.000000 -0.000001 -3.439399 -2.589969 57.358979 5.396646 -4.598217 99.145892 1.695547 -3.595747 50.480217 0.000000 0.000001 -0.000005 -4.104280 -3.282325 64.798544 4.014325 -4.612698 82.057497 2.338512 -4.040038 60.113567 -0.000003 -0.000000 -0.000001 -21.191883 43.005904 28.148803 21.845978 1.192937 -0.613270 4.587326 1.172756 -2.851697 -0.206326 0.000022 -0.007997 -0.000000 0.000001 0.000000 2.782215 5.042300 -5.704837 31.548931 0.207872 0.935017 -19.211092 -17.328373 4.028535 -0.557960 -0.000027 -0.000003 -0.000000 -0.000001 -0.000000 
0.130093 194.135544 -2.276756 -18.404148 -38.875316 -9.747209 7.798491 -0.480487 0.274672 16.313733 -0.188287 -0.582949 16.314643 -0.251121 -0.559827 -0.676329 7.537743 0.750911 -4.787001 21.851604 11.345821 0.000000 0.000001 0.000001 0.000000 0.000001 0.000001 0.000000 0.000001 0.000001 -37.560508 -4.456032 1.794547 -38.960967 -1.514259 -65.165257 0.000137 -70.104174 0.000157 -109.796070 9.306219 35.938475 0.405911 5.507035 -52.453189 3.387152 5.308622 -65.057443 0.282018 1.797448 -17.832386 -0.000002 -0.000000 0.000000 4.709223 9.560383 3.111988 19.473190 -1.474895 7.636928 -4.536190 -9.613108 1.492979 0.000002 0.000001 -0.000001 -0.212812 3.933710 -36.747121 2.942120 5.078902 -60.144624 0.513681 2.400828 -24.150494 0.000004 0.000001 -0.000001 -0.074374 5.736792 -61.061420 4.055036 5.569517 -72.094921 0.582653 2.548967 -25.748003 -0.000002 0.000002 -0.000002 -6.565574 4.545128 -72.425263 3.299602 5.267205 -64.107828 0.175335 1.424011 -14.038883 -0.000001 0.000000 -0.000003 -41.400403 -9.788217 -10.541201 -44.549567 60.295264 100.178938 -0.000001 100.928155 0.000015 -53.058624 -17.819217 -29.530695 3.400462 -7.120861 52.952346 6.333418 -4.345681 111.116851 0.269747 -1.563531 19.576461 0.000002 -0.000000 -0.000000 8.014919 -1.613475 10.820834 16.482467 -23.369327 -14.168672 -1.326946 -49.843432 -33.131301 0.000000 -0.000000 -0.000003 -0.956051 1.855074 12.430947 1.013369 -2.902265 38.487744 0.949719 -2.820462 37.212564 0.000001 -0.000000 -0.000001 -3.389986 -2.596130 57.172700 5.411610 -4.595775 99.332821 1.684755 -3.586837 50.308110 -0.000000 0.000000 -0.000002 -4.036681 -3.307889 64.753677 4.006188 -4.611535 81.956198 2.373915 -4.060114 60.614848 -0.000002 -0.000000 0.000001 -20.277396 43.167834 27.639682 20.972227 0.931924 -0.604407 5.238154 1.155696 -2.823030 -0.199506 0.000031 -0.006569 -0.000000 0.000000 0.000000 3.112314 4.837361 -5.905730 31.770809 0.141938 1.252291 -19.361717 -17.280437 3.691351 -0.689775 -0.000010 -0.000003 -0.000000 0.000000 -0.000000 
0.096085 194.102676 -2.927811 -18.313023 -38.295027 -9.628977 7.862326 -0.423340 0.342014 16.348456 -0.170447 -0.590114 16.349721 -0.234285 -0.566570 -0.515954 7.339012 0.958693 -5.484034 21.310627 11.605112 -0.000000 -0.000000 -0.000002 -0.000000 -0.000000 -0.000002 -0.000000 -0.000000 -0.000002 -37.572884 -4.781138 1.660855 -40.312934 -2.974200 -64.592662 0.000015 -67.798343 0.000016 -110.710973 9.449993 35.137625 0.405910 5.507032 -52.453186 3.387159 5.308616 -65.057443 0.282028 1.797450 -17.832384 0.000002 -0.000000 0.000000 4.709225 9.560380 3.111985 19.473189 -1.474896 7.636931 -4.536194 -9.613104 1.492980 0.000000 0.000002 -0.000001 -0.212810 3.933707 -36.747125 2.942120 5.078904 -60.144624 0.513680 2.400829 -24.150494 -0.000002 0.000003 -0.000002 -0.074376 5.736788 -61.061420 4.055038 5.569519 -72.094921 0.582659 2.548968 -25.748001 0.000001 -0.000003 0.000000 -6.565572 4.545125 -72.425270 3.299600 5.267210 -64.107821 0.175342 1.424012 -14.038886 0.000000 0.000001 -0.000003 -41.361447 -9.514396 -10.452230 -45.359085 59.485429 100.305576 0.000932 100.282784 -0.000951 -53.258885 -18.160954 -30.016192 3.374616 -7.122386 52.439436 6.323501 -4.349493 110.986339 0.260024 -1.535832 19.216099 0.000000 0.000000 -0.000000 8.152663 -2.906224 10.884715 18.749737 -21.041263 -16.105687 -1.524037 -49.848011 -33.319982 -0.000002 -0.000000 -0.000004 -0.796618 1.970141 10.459461 0.753233 -2.541348 33.014010 0.623259 -2.329333 29.955967 0.000002 0.000000 -0.000003 -3.321085 -2.598905 56.866120 5.441908 -4.590735 99.711268 1.677926 -3.581174 50.198680 -0.000000 0.000001 -0.000003 -3.960504 -3.321143 64.593843 4.021315 -4.613664 82.144486 2.384454 -4.066015 60.763528 0.000001 0.000000 0.000001 -20.508550 43.126453 27.661626 20.646035 0.384716 -0.583319 5.650779 1.149225 -2.661687 -0.190951 0.000013 -0.002811 -0.000000 0.000001 0.000000 2.996720 4.792207 -5.779539 31.949320 -0.356380 1.569789 -19.393810 -17.248569 3.525903 -0.645469 -0.000010 0.000004 0.000000 -0.000003 -0.000000 
